<svg width="52" height="25" viewBox="0 0 52 25" fill="none" xmlns="http://www.w3.org/2000/svg">
<g filter="url(#filter0_d_2_163)">
<path d="M7.176 10.246V0.633999H4.116V13H13.134V10.246H7.176ZM19.3236 13.216C22.1316 13.216 24.4896 10.984 24.4896 8.338C24.4896 5.692 22.1316 3.478 19.3236 3.478C16.5156 3.478 14.1576 5.692 14.1576 8.338C14.1576 10.984 16.5156 13.216 19.3236 13.216ZM19.3236 10.678C18.0816 10.678 17.0376 9.598 17.0376 8.338C17.0376 7.078 18.0816 6.016 19.3236 6.016C20.5656 6.016 21.6096 7.078 21.6096 8.338C21.6096 9.598 20.5656 10.678 19.3236 10.678ZM32.6754 3.694V4.828C32.0634 4.036 30.8754 3.478 29.7054 3.478C27.4014 3.478 25.6194 5.296 25.6194 7.888C25.6194 10.48 27.4014 12.316 29.7054 12.316C30.8574 12.316 31.9374 11.83 32.6754 10.984V11.866C32.6754 12.856 31.6494 13.558 30.1194 13.558C29.0574 13.558 27.9774 13.216 27.4014 12.73L26.3754 14.854C27.3294 15.574 28.9134 16.096 30.5874 16.096C33.6114 16.096 35.7354 14.404 35.7354 12.01V3.694H32.6754ZM30.7134 9.778C29.5794 9.778 28.7514 8.986 28.7514 7.888C28.7514 6.79 29.5794 6.016 30.7134 6.016C31.8654 6.016 32.6754 6.79 32.6754 7.888C32.6754 8.986 31.8654 9.778 30.7134 9.778ZM42.5092 13.216C45.3172 13.216 47.6752 10.984 47.6752 8.338C47.6752 5.692 45.3172 3.478 42.5092 3.478C39.7012 3.478 37.3432 5.692 37.3432 8.338C37.3432 10.984 39.7012 13.216 42.5092 13.216ZM42.5092 10.678C41.2672 10.678 40.2232 9.598 40.2232 8.338C40.2232 7.078 41.2672 6.016 42.5092 6.016C43.7512 6.016 44.7952 7.078 44.7952 8.338C44.7952 9.598 43.7512 10.678 42.5092 10.678Z" fill="white"/>
</g>
<defs>
<filter id="filter0_d_2_163" x="0.115997" y="0.634033" width="51.5591" height="23.4619" filterUnits="userSpaceOnUse" color-interpolation-filters="sRGB">
<feFlood flood-opacity="0" result="BackgroundImageFix"/>
<feColorMatrix in="SourceAlpha" type="matrix" values="0 0 0 0 0 0 0 0 0 0 0 0 0 0 0 0 0 0 127 0" result="hardAlpha"/>
<feOffset dy="4"/>
<feGaussianBlur stdDeviation="2"/>
<feComposite in2="hardAlpha" operator="out"/>
<feColorMatrix type="matrix" values="0 0 0 0 0 0 0 0 0 0 0 0 0 0 0 0 0 0 0.25 0"/>
<feBlend mode="normal" in2="BackgroundImageFix" result="effect1_dropShadow_2_163"/>
<feBlend mode="normal" in="SourceGraphic" in2="effect1_dropShadow_2_163" result="shape"/>
</filter>
</defs>
</svg>
